<svg xmlns="http://www.w3.org/2000/svg" width="32" height="32" viewBox="0 0 32 32">
    <g fill="none" fill-rule="evenodd" transform="translate(1 1)">
        <circle cx="15" cy="15" r="15" stroke="#979797"/>
        <path fill="#E29C3B" d="M13.928 21.003c.038.021.075.044.115.06.039.017.08.026.12.038.034.01.068.023.103.03.154.03.313.03.468 0 .035-.007.068-.02.102-.03.04-.012.082-.021.121-.037.04-.017.077-.04.115-.061.03-.016.062-.03.091-.05.066-.043.127-.094.183-.15L19.15 17a1.193 1.193 0 0 0 0-1.691 1.195 1.195 0 0 0-1.692 0l-1.762 1.763V9.196a1.196 1.196 0 1 0-2.392 0v7.876l-1.763-1.764A1.195 1.195 0 1 0 9.851 17l3.803 3.803c.056.056.117.107.183.15.03.02.06.034.091.05z"/>
    </g>
</svg>
