<svg xmlns="http://www.w3.org/2000/svg" width="32" height="32" viewBox="0 0 32 32">
    <g fill="none" fill-rule="evenodd" transform="translate(1 1)">
        <circle cx="15" cy="15" r="15" stroke="#979797"/>
        <path fill="#ABC111" d="M15.072 8.151c-.038-.02-.075-.044-.115-.06-.039-.016-.08-.026-.12-.038-.034-.01-.068-.023-.103-.03a1.22 1.22 0 0 0-.468 0c-.035.007-.068.02-.102.03-.04.012-.082.022-.121.038-.04.017-.077.04-.115.06-.03.016-.062.03-.091.05a1.213 1.213 0 0 0-.183.15L9.85 12.154a1.193 1.193 0 0 0 0 1.691 1.195 1.195 0 0 0 1.692 0l1.762-1.763v7.876a1.196 1.196 0 1 0 2.392 0v-7.876l1.763 1.764a1.195 1.195 0 1 0 1.69-1.692l-3.803-3.803a1.185 1.185 0 0 0-.183-.15c-.03-.02-.06-.034-.091-.05z"/>
    </g>
</svg>
