<svg xmlns="http://www.w3.org/2000/svg" xmlns:xlink="http://www.w3.org/1999/xlink" width="59" height="36" viewBox="0 0 59 36">
    <defs>
        <path id="a" d="M0 35.806h58.742V.653H0z"/>
    </defs>
    <g fill="none" fill-rule="evenodd">
        <path fill="#FF0E11" d="M.013 26.641H17.01V8.421H.013zM20.846 26.641h17.002V8.421H20.846zM41.685 26.641h16.998V8.421H41.685z"/>
        <g transform="translate(0 -.46)">
            <path fill="#FFF" d="M8.476 20.077l-2.295-4.89-1.523.82 3.58 7.625L17.07 10.09l-1.4-1.048s-5.876 9.01-7.195 11.036"/>
            <path fill="#FF0E11" d="M15.67 9.04l1.4 1.049L22.545 1.7 21.147.654zM1.502 33.574c.29 0 .514-.134.662-.347.155-.218.195-.498.195-.799h-.41c-.42 0-1.048.077-1.048.673 0 .33.263.473.6.473zM.394 30.54c.369-.178.86-.295 1.262-.295 1.107 0 1.563.492 1.563 1.639v.497c0 .392.008.687.013.972.006.294.02.566.042.868h-.83c-.033-.203-.033-.458-.044-.578h-.012c-.218.429-.689.669-1.12.669-.642 0-1.268-.414-1.268-1.154 0-.58.262-.92.623-1.107.359-.19.822-.228 1.215-.228h.521c0-.625-.259-.835-.815-.835-.402 0-.802.168-1.121.421l-.029-.869zM7.479 34.222h-.895v-.525h-.013c-.29.376-.699.616-1.187.616-.858 0-1.238-.647-1.238-1.523v-2.45h.947v2.073c0 .473.003 1.116.608 1.116.69 0 .836-.793.836-1.29v-1.9h.942v3.883zM8.762 31.076h-.699v-.739h.699v-.775l.944-.325v1.1h.835v.74h-.835v1.813c0 .331.084.64.44.64a.83.83 0 0 0 .43-.105l.028.796a2.215 2.215 0 0 1-.697.092c-.74 0-1.145-.49-1.145-1.258v-1.979zM12.85 33.528c.727 0 .919-.693.919-1.341 0-.597-.298-1.155-.919-1.155-.612 0-.907.576-.907 1.155 0 .64.188 1.341.907 1.341m0-3.282c1.078 0 1.905.778 1.905 2.061 0 1.118-.7 2.006-1.905 2.006-1.193 0-1.892-.888-1.892-2.006 0-1.283.824-2.06 1.892-2.06M17.845 31.176a1.379 1.379 0 0 0-.643-.143c-.585 0-.955.495-.955 1.227 0 .721.312 1.27.974 1.27.27 0 .565-.105.728-.184l.043.84c-.273.091-.556.127-.943.127-1.19 0-1.788-.867-1.788-2.053 0-1.123.615-2.012 1.752-2.012.38 0 .656.047.91.126l-.078.802zM20.281 33.528c.723 0 .913-.693.913-1.341 0-.597-.294-1.155-.913-1.155-.618 0-.909.576-.909 1.155 0 .64.188 1.341.91 1.341m0-3.282c1.077 0 1.9.778 1.9 2.061 0 1.118-.699 2.006-1.9 2.006s-1.897-.888-1.897-2.006c0-1.283.822-2.06 1.896-2.06M22.908 30.34h.878v.541h.012c.295-.476.727-.635 1.078-.635.51 0 .867.206 1.07.688.218-.466.69-.688 1.136-.688.892 0 1.145.662 1.145 1.525v2.45h-.943v-2.314c0-.363 0-.875-.54-.875-.63 0-.705.8-.705 1.303v1.886h-.946v-2.314c0-.363 0-.875-.541-.875-.625 0-.7.8-.7 1.303v1.886h-.944V30.34zM30.13 32.27c0 .55.203 1.26.828 1.26.622 0 .8-.726.8-1.26 0-.522-.172-1.237-.785-1.237-.604 0-.843.694-.843 1.237zm-.95-1.931h.9v.551h.014c.211-.38.57-.642 1.124-.642 1.115 0 1.525.952 1.525 2.022 0 1.064-.41 2.043-1.54 2.043-.403 0-.738-.105-1.067-.535h-.012v2.028h-.944V30.34zM34.75 33.574a.779.779 0 0 0 .66-.347c.157-.218.198-.498.198-.799h-.41c-.423 0-1.047.077-1.047.673 0 .33.26.473.598.473zm-1.107-3.033c.367-.178.86-.295 1.26-.295 1.108 0 1.566.492 1.566 1.639v.497c0 .392.003.687.01.972.008.294.022.566.042.868h-.83c-.035-.203-.035-.458-.042-.578h-.012c-.22.429-.69.669-1.12.669-.645 0-1.268-.414-1.268-1.154 0-.58.263-.92.619-1.107.356-.19.825-.228 1.217-.228h.523c0-.625-.258-.835-.818-.835-.4 0-.8.168-1.12.421l-.027-.869zM37.419 30.34h.835v.88h.013c.044-.359.431-.974.996-.974.088 0 .19 0 .288.033v1.018c-.088-.055-.252-.085-.423-.085-.77 0-.77 1.028-.77 1.587v1.422h-.94V30.34zM41.402 33.574a.782.782 0 0 0 .662-.347c.157-.218.198-.498.198-.799h-.41c-.423 0-1.047.077-1.047.673 0 .33.256.473.597.473zM40.3 30.54a3.083 3.083 0 0 1 1.256-.295c1.106 0 1.564.492 1.564 1.639v.497c0 .392.008.687.012.972.007.294.022.566.044.868h-.83c-.035-.203-.035-.458-.046-.578h-.013c-.217.429-.687.669-1.117.669-.644 0-1.267-.414-1.267-1.154 0-.58.261-.92.62-1.107.358-.19.823-.228 1.22-.228h.519c0-.625-.263-.835-.82-.835-.399 0-.798.168-1.117.421l-.025-.869z"/>
            <mask id="b" fill="#fff">
                <use xlink:href="#a"/>
            </mask>
            <path fill="#FF0E11" d="M44.051 34.223h.984v-1.055h-.984zM48.359 31.176a1.363 1.363 0 0 0-.64-.143c-.587 0-.957.495-.957 1.227 0 .721.316 1.27.975 1.27.269 0 .564-.105.724-.184l.043.84c-.274.091-.556.127-.939.127-1.19 0-1.79-.867-1.79-2.053 0-1.123.62-2.012 1.753-2.012.38 0 .655.047.914.126l-.083.802zM50.793 33.528c.726 0 .917-.693.917-1.341 0-.597-.295-1.155-.917-1.155-.61 0-.907.576-.907 1.155 0 .64.193 1.341.907 1.341m0-3.282c1.079 0 1.901.778 1.901 2.061 0 1.118-.696 2.006-1.901 2.006-1.195 0-1.89-.888-1.89-2.006 0-1.283.823-2.06 1.89-2.06M53.423 30.34h.878v.541h.015c.294-.476.727-.635 1.075-.635.509 0 .866.206 1.069.688.218-.466.692-.688 1.135-.688.894 0 1.148.662 1.148 1.525v2.45h-.944v-2.314c0-.363 0-.875-.54-.875-.627 0-.705.8-.705 1.303v1.886h-.946v-2.314c0-.363 0-.875-.539-.875-.627 0-.704.8-.704 1.303v1.886h-.942V30.34z" mask="url(#b)"/>
        </g>
    </g>
</svg>
