<svg xmlns="http://www.w3.org/2000/svg" xmlns:xlink="http://www.w3.org/1999/xlink" width="151" height="33" viewBox="0 0 151 33">
    <defs>
        <path id="a" d="M0 .883h87.343v21.836H0z"/>
        <path id="c" d="M.815.997h13.513v13.238H.815z"/>
        <path id="e" d="M.45.68h14.031v11.025H.451z"/>
    </defs>
    <g fill="none" fill-rule="evenodd">
        <path fill="#FF050F" d="M101.682 16.502c-.809.003-1.55.123-2.226.367a5.984 5.984 0 0 0-1.81 1.02 6.382 6.382 0 0 0-1.36 1.538 7.159 7.159 0 0 0-.848 1.924 8.018 8.018 0 0 0-.295 2.192c.003.957.16 1.744.465 2.357.302.606.731 1.054 1.28 1.345.554.293 1.204.437 1.955.435a6.986 6.986 0 0 0 1.753-.215 5.837 5.837 0 0 0 1.353-.535c.381-.219.693-.449.931-.696.208-.19.351-.41.441-.64.091-.232.137-.479.137-.727a1.507 1.507 0 0 0-.067-.455 1.525 1.525 0 0 0-.15-.328.756.756 0 0 0-.168-.18 6.855 6.855 0 0 1-1.302.898 4.516 4.516 0 0 1-.855.352 3.06 3.06 0 0 1-.895.143c-.394-.002-.704-.098-.946-.287-.244-.19-.415-.458-.529-.803-.108-.343-.159-.746-.159-1.215 0-.367.035-.745.107-1.135a5.79 5.79 0 0 1 .345-1.143c.158-.368.362-.703.615-1.002.247-.296.547-.532.9-.709a2.82 2.82 0 0 1 1.228-.268c.254 0 .507.031.75.08.247.052.49.125.72.208.104-.008.216-.082.331-.2a2.35 2.35 0 0 0 .328-.479 2.92 2.92 0 0 0 .237-.602c.057-.207.078-.394.065-.569a2.003 2.003 0 0 0-.63-.388 3.2 3.2 0 0 0-.8-.215 5.295 5.295 0 0 0-.88-.068h-.02zm9.707 0c-1.016.008-1.922.188-2.71.548a5.75 5.75 0 0 0-2.009 1.498 6.549 6.549 0 0 0-1.243 2.203 8.11 8.11 0 0 0-.432 2.672c0 1.404.33 2.47 1.01 3.183.674.712 1.722 1.074 3.151 1.074.99-.008 1.874-.192 2.662-.547a5.855 5.855 0 0 0 2.01-1.48 6.538 6.538 0 0 0 1.275-2.206c.293-.834.44-1.729.45-2.692 0-.849-.15-1.59-.456-2.225a3.344 3.344 0 0 0-1.37-1.486c-.616-.354-1.382-.539-2.315-.542h-.023zm-.407 2.041c.233.005.43.061.593.17.162.11.29.251.386.436.093.182.164.38.204.6.046.221.066.444.066.668 0 .728-.066 1.402-.189 2.028a6.696 6.696 0 0 1-.53 1.65c-.229.473-.506.844-.823 1.112a1.631 1.631 0 0 1-1.056.404c-.304-.003-.543-.096-.728-.269a1.556 1.556 0 0 1-.399-.707 3.612 3.612 0 0 1-.119-.97c0-.514.036-1.018.11-1.513.077-.497.182-.956.33-1.393a5.29 5.29 0 0 1 .53-1.147c.205-.332.447-.59.714-.782a1.59 1.59 0 0 1 .888-.287h.023zM121.1 19.6c.025-.19.05-.36.075-.502.131-.88.191-1.528.184-1.955-.003-.43-.078-.64-.209-.64-.055 0-.17.016-.353.046-.184.031-.397.071-.649.12-.249.054-.499.105-.752.16-.258.052-.487.105-.688.154a4.59 4.59 0 0 0-.42.122c.028.205.01.64-.049 1.295-.06.662-.18 1.581-.357 2.763-.096.558-.187 1.135-.28 1.733-.096.592-.193 1.181-.29 1.755a112.976 112.976 0 0 1-.513 2.931c.533-.006.987-.035 1.362-.076.375-.045.676-.102.915-.17.236-.066.425-.146.56-.233a.97.97 0 0 0 .257-.29c.074-.127.138-.322.198-.579a24.33 24.33 0 0 1 .805-3.014c.298-.838.598-1.528.916-2.069.311-.545.618-.967.917-1.28.302-.304.576-.517.828-.644.257-.122.47-.18.645-.178.206.004.358.071.45.205.092.13.15.31.16.53.012.216 0 .462-.033.73-.05.496-.12 1.033-.208 1.611-.088.577-.19 1.18-.31 1.792-.116.623-.234 1.244-.359 1.861-.126.621-.253 1.22-.372 1.804.542-.01 1.003-.04 1.378-.094.373-.05.682-.107.918-.173.231-.07.415-.13.538-.193a.656.656 0 0 0 .297-.28c.087-.143.163-.347.21-.608.221-1.183.467-2.193.748-3.028.284-.833.578-1.52.883-2.065.31-.54.617-.967.914-1.27.304-.307.586-.52.846-.645.262-.124.484-.18.67-.177a.506.506 0 0 1 .392.19c.092.132.15.302.176.524.022.218 0 .467-.063.75-.062.287-.124.614-.193.981-.07.366-.137.751-.209 1.15-.077.393-.144.784-.208 1.165-.07.38-.124.717-.18 1.034-.055.322-.102.648-.13.977-.032.33-.058.635-.066.915-.008.282-.003.506.012.681.014.168.045.26.082.264.112 0 .288-.008.533-.02.25-.018.528-.039.832-.076.303-.029.6-.074.887-.13.281-.056.515-.123.705-.209.016-.393.047-.842.097-1.333.051-.493.122-1.036.217-1.624.055-.39.122-.806.19-1.247.071-.436.142-.889.223-1.346.08-.456.156-.895.238-1.325.076-.454.117-.914.103-1.367a3.98 3.98 0 0 0-.22-1.243 1.9 1.9 0 0 0-.647-.904c-.299-.23-.696-.35-1.183-.354a4.457 4.457 0 0 0-1.552.272 4.697 4.697 0 0 0-1.282.717 7.084 7.084 0 0 0-1.047 1.01c-.308.37-.585.753-.832 1.148h-.047a.661.661 0 0 0 .02-.125c.004-.026.004-.072.004-.14.04-.528 0-1.008-.12-1.442a2.102 2.102 0 0 0-.629-1.04c-.302-.258-.699-.392-1.197-.4a4.006 4.006 0 0 0-1.536.301 5.163 5.163 0 0 0-1.28.758c-.39.313-.738.65-1.048 1.007-.303.357-.57.704-.799 1.032h-.075zM90.72 21.01c-.396.003-.738.088-1.024.257-.29.167-.51.404-.665.709-.154.309-.229.67-.235 1.095.006.335.07.628.204.875.131.25.318.44.558.573.237.135.52.197.843.202.36-.005.68-.086.956-.257a1.76 1.76 0 0 0 .656-.701c.16-.298.235-.641.243-1.035 0-.317-.057-.603-.172-.863a1.46 1.46 0 0 0-.512-.619c-.22-.151-.502-.233-.83-.236h-.022zM90.525 19.353c.59 0 1.142.143 1.634.388.94-2.833 1.518-4.53 3.14-6.575l-2.235-.073c-1.602 2.016-2.352 3.645-3.025 6.295.161-.018.32-.035.486-.035M90.59 26.639c-.492 0-.956-.098-1.383-.271.158 2.663.67 4.378 1.833 6.635h2.311c-1.14-2.214-1.656-3.918-1.823-6.487-.3.078-.61.123-.939.123"/>
        <g transform="translate(0 10.003)">
            <mask id="b" fill="#fff">
                <use xlink:href="#a"/>
            </mask>
            <path fill="#003F97" d="M2.561 17.598c.592 0 1.176-.104 1.751-.316a5.213 5.213 0 0 0 1.606-.93c.506-.407.94-.92 1.306-1.534 0 .029-.005.096-.017.2-.005.106-.018.226-.03.358a9.055 9.055 0 0 1-.027.36c-.01.2-.014.412-.01.629 0 .213.01.417.027.6.016.184.04.337.07.454.03.117.067.175.11.179.105 0 .274-.01.503-.021.232-.017.486-.036.772-.072.281-.032.564-.078.84-.134.272-.055.511-.126.706-.21 0-.186.006-.455.013-.81.014-.355.032-.764.067-1.223.028-.458.074-.931.141-1.42.026-.222.07-.54.134-.956.06-.418.141-.904.223-1.463.086-.56.185-1.165.286-1.811.101-.652.208-1.32.316-2.006.11-.688.22-1.368.322-2.041.104-.673.207-1.312.304-1.92.094-.602.178-1.152.251-1.64.063-.335.078-.586.054-.748-.027-.162-.11-.24-.249-.24-.173 0-.387.01-.642.035a29.998 29.998 0 0 0-1.606.199c-.253.04-.47.069-.652.105 0 .206-.018.493-.055.855-.036.358-.083.762-.144 1.202-.063.438-.127.882-.194 1.327-.074.446-.137.856-.204 1.233-.066.374-.126.679-.174.913a3.025 3.025 0 0 0-.796-.287 5.273 5.273 0 0 0-1.018-.098 6.25 6.25 0 0 0-2.256.405 6.01 6.01 0 0 0-1.819 1.11 6.802 6.802 0 0 0-1.347 1.653 8.194 8.194 0 0 0-.838 2.03A8.924 8.924 0 0 0 0 13.804c.004.802.11 1.483.317 2.046.203.562.496.998.878 1.297.378.298.824.447 1.342.45h.025zm1.644-2.562c-.263.002-.476-.122-.649-.395-.175-.27-.26-.708-.269-1.318 0-.412.044-.84.127-1.283.088-.447.22-.876.4-1.295.18-.418.397-.8.671-1.14.274-.337.597-.611.966-.81a2.727 2.727 0 0 1 1.265-.305c.314 0 .588.045.817.133.23.084.415.203.56.35-.016.07-.035.154-.053.257-.02.106-.036.208-.058.303-.016.095-.025.169-.034.213A9.674 9.674 0 0 1 7.4 11.7a7.658 7.658 0 0 1-.772 1.482 6.034 6.034 0 0 1-.869 1.043c-.297.272-.58.478-.845.61-.262.134-.492.2-.686.2h-.022zm14.683-8.67a5.52 5.52 0 0 0-3.766 1.457c-.5.45-.926.972-1.28 1.568a7.786 7.786 0 0 0-.806 1.906 7.82 7.82 0 0 0-.282 2.072c-.004.864.12 1.616.38 2.249a2.973 2.973 0 0 0 1.215 1.457c.561.344 1.293.519 2.198.523.75-.01 1.407-.09 1.967-.252.565-.165 1.035-.363 1.42-.602.385-.237.68-.473.888-.718a1.49 1.49 0 0 0 .35-.546c.086-.227.133-.49.133-.808 0-.24-.022-.434-.068-.587a.853.853 0 0 0-.197-.353c-.26.216-.56.43-.904.648a5.533 5.533 0 0 1-1.165.547 4.25 4.25 0 0 1-1.387.23c-.392-.003-.71-.075-.956-.223a1.333 1.333 0 0 1-.543-.606 2.233 2.233 0 0 1-.168-.886v-.29a10.082 10.082 0 0 0 2.536-.421 8.15 8.15 0 0 0 1.314-.517c.423-.215.8-.467 1.14-.767.333-.302.594-.65.797-1.043a3.04 3.04 0 0 0 .298-1.358c0-.572-.133-1.057-.397-1.458-.26-.396-.623-.7-1.086-.91-.46-.21-.998-.311-1.604-.311h-.027zm-.433 1.957a.818.818 0 0 1 .482.145.923.923 0 0 1 .389.723c.004.156-.04.339-.123.542a1.727 1.727 0 0 1-.479.626c-.233.207-.568.389-.997.548-.437.156-.999.26-1.687.312.14-.681.341-1.236.604-1.662.262-.43.548-.74.861-.941.313-.198.622-.295.926-.293h.024zm9.541-1.956a5.226 5.226 0 0 0-1.74.28 4.21 4.21 0 0 0-1.348.773 3.536 3.536 0 0 0-.88 1.157c-.204.44-.304.918-.307 1.435-.005.315.038.625.13.93.094.306.267.615.518.926.251.31.605.624 1.065.943.457.322.814.584 1.07.787.261.206.442.378.547.523a.74.74 0 0 1 .147.43c-.004.234-.12.425-.346.573-.228.145-.53.225-.91.228-.309 0-.62-.032-.93-.094a7.02 7.02 0 0 1-.889-.226 6.23 6.23 0 0 1-.743-.288c-.113-.054-.223-.023-.324.096-.1.112-.18.278-.233.494-.05.215-.075.438-.056.685.021.239.087.462.204.66.11.158.284.304.532.44.245.139.548.252.902.34.354.089.745.135 1.175.139.71-.004 1.356-.104 1.923-.304a4.468 4.468 0 0 0 1.454-.806c.398-.347.706-.735.916-1.174.21-.441.32-.903.32-1.387a2.573 2.573 0 0 0-.16-.94 2.893 2.893 0 0 0-.565-.886c-.26-.294-.615-.595-1.06-.904-.396-.265-.718-.49-.96-.672a5.928 5.928 0 0 1-.56-.476 1.52 1.52 0 0 1-.255-.347.6.6 0 0 1-.06-.293.715.715 0 0 1 .166-.48.952.952 0 0 1 .423-.278c.171-.061.362-.088.567-.088.238 0 .453.02.647.064.195.04.384.09.563.155.244.09.457.095.635.017a.979.979 0 0 0 .442-.39c.121-.177.211-.376.272-.594.066-.22.107-.42.122-.606a2.103 2.103 0 0 0-.668-.465 4.116 4.116 0 0 0-.865-.283 4.077 4.077 0 0 0-.857-.094h-.024zm7.947 2.679l.118-.848c.047-.308.085-.61.124-.904.036-.292.063-.555.082-.776.022-.221.024-.38.013-.465a2.704 2.704 0 0 0-.588.012c-.236.038-.489.077-.762.136-.267.059-.528.123-.783.196-.258.072-.476.144-.664.206-.19.074-.318.129-.39.173 0 .173-.013.402-.04.685-.026.28-.058.585-.097.925-.04.335-.087.668-.13.999-.043.337-.085.639-.12.917a402.677 402.677 0 0 1-1.932 12.126c.17 0 .373-.01.622-.022.242-.017.497-.04.762-.07.262-.03.507-.07.74-.102.224-.033.401-.075.533-.12.237-.08.413-.198.53-.358.117-.162.2-.393.24-.705.058-.383.117-.785.188-1.2.066-.415.145-.866.225-1.342.084-.48.17-1.013.263-1.59.301.25.654.427 1.07.53.414.106.847.152 1.3.149a5.11 5.11 0 0 0 2.014-.41 5.532 5.532 0 0 0 1.654-1.127 6.785 6.785 0 0 0 1.242-1.67 8.615 8.615 0 0 0 .783-2.053 9.415 9.415 0 0 0 .27-2.28 6.35 6.35 0 0 0-.136-1.318 4.018 4.018 0 0 0-.469-1.188 2.519 2.519 0 0 0-.858-.856c-.356-.215-.79-.327-1.309-.33a4.462 4.462 0 0 0-1.434.228c-.436.15-.839.349-1.207.607-.37.25-.702.538-1.003.854-.298.32-.565.649-.805.99h-.046zm3.14-.17c.28 0 .494.129.645.386.146.254.223.625.223 1.114 0 .38-.034.79-.099 1.226a7.159 7.159 0 0 1-.335 1.296 4.658 4.658 0 0 1-.61 1.162 3.065 3.065 0 0 1-.944.848c-.377.21-.812.319-1.32.32a1.749 1.749 0 0 1-.704-.141 1.735 1.735 0 0 1-.673-.483c0-.083.008-.168.02-.255.011-.09.028-.197.052-.327.158-.79.373-1.497.658-2.128a7.949 7.949 0 0 1 .947-1.625c.354-.446.714-.791 1.081-1.03.365-.245.708-.362 1.036-.362h.022zm11.666-2.51a5.511 5.511 0 0 0-2.064.39 5.681 5.681 0 0 0-1.703 1.067c-.5.45-.926.972-1.283 1.568a7.9 7.9 0 0 0-1.086 3.978c-.004.864.126 1.616.38 2.249a2.985 2.985 0 0 0 1.214 1.457c.56.344 1.292.519 2.2.523.75-.01 1.405-.09 1.967-.252.565-.165 1.036-.363 1.418-.602.388-.237.681-.473.89-.718.148-.144.266-.324.35-.546.09-.227.133-.49.133-.808 0-.24-.024-.434-.069-.587a.923.923 0 0 0-.194-.353c-.26.216-.566.43-.908.648a5.6 5.6 0 0 1-1.159.547c-.428.15-.89.227-1.39.23-.393-.003-.71-.075-.957-.223a1.284 1.284 0 0 1-.538-.606 2.132 2.132 0 0 1-.17-.886v-.29a10.156 10.156 0 0 0 2.531-.421 8.063 8.063 0 0 0 1.316-.517 5.4 5.4 0 0 0 1.14-.767c.334-.302.6-.65.796-1.043.196-.401.296-.85.3-1.358-.004-.572-.134-1.057-.398-1.458a2.516 2.516 0 0 0-1.086-.91c-.46-.21-1-.311-1.605-.311h-.025zm-.435 1.957a.85.85 0 0 1 .771.481.868.868 0 0 1 .1.387c.002.156-.037.339-.12.542-.09.212-.249.422-.482.626-.233.207-.567.389-.997.548-.436.156-1 .26-1.686.312.14-.681.34-1.236.601-1.662.263-.43.551-.74.865-.941.314-.198.62-.295.922-.293h.026zM60 6.367c-.68.002-1.317.11-1.887.334a4.32 4.32 0 0 0-1.489.93 4.176 4.176 0 0 0-.979 1.446 4.897 4.897 0 0 0-.356 1.855c.006.436.058.818.16 1.145.1.327.23.605.386.829a2.516 2.516 0 0 0 .979.876 8.085 8.085 0 0 0-.807.513 4.02 4.02 0 0 0-.63.568c-.163.184-.252.355-.253.513.001.266.047.503.14.712.087.208.187.386.306.53.114.145.216.252.302.328-.439.23-.832.468-1.17.73a4.03 4.03 0 0 0-.802.776c-.197.256-.296.494-.3.714-.003.387.09.786.277 1.197.192.412.493.797.906 1.15.417.355.96.646 1.632.862.67.22 1.49.335 2.45.344.818-.005 1.552-.116 2.207-.33.651-.218 1.213-.512 1.675-.886a3.964 3.964 0 0 0 1.061-1.283c.247-.477.363-.982.371-1.512a2.727 2.727 0 0 0-.22-1.08 2.65 2.65 0 0 0-.712-.981c-.33-.295-.773-.528-1.314-.693-.22-.058-.472-.125-.747-.196-.279-.07-.567-.137-.853-.21-.285-.068-.548-.138-.797-.196a18.16 18.16 0 0 1-.598-.171 2.739 2.739 0 0 1-.705-.276c-.156-.104-.237-.22-.237-.353a.292.292 0 0 1 .072-.175c.045-.05.095-.105.143-.163.044.01.122.024.241.042.112.02.25.034.411.052.16.02.33.028.51.028.418 0 .846-.047 1.272-.145.432-.1.842-.251 1.232-.46a3.87 3.87 0 0 0 1.05-.803c.31-.332.557-.726.74-1.188.174-.464.268-.998.273-1.607 0-.1-.01-.228-.025-.387-.02-.157-.039-.314-.064-.475a2.733 2.733 0 0 0-.105-.418c.11 0 .265.006.458.019a15 15 0 0 1 .594.035c.202.01.365.015.492.015 0-.137.004-.306.015-.504.016-.197.028-.402.047-.616l.06-.616c.027-.196.047-.365.073-.507-.18.033-.385.068-.607.107-.225.04-.456.082-.677.12-.232.037-.435.07-.618.096a4.014 4.014 0 0 1-.417.039 1.318 1.318 0 0 1-.425-.045 3.207 3.207 0 0 1-.472-.148 6.363 6.363 0 0 0-.492-.201 5.55 5.55 0 0 0-.74-.195 5.591 5.591 0 0 0-1.01-.085h-.027zm1.16 3.379c-.004.528-.079 1.002-.24 1.418-.152.418-.369.747-.642.988-.27.244-.58.367-.929.373-.354 0-.63-.13-.83-.384-.2-.26-.299-.642-.308-1.162 0-.37.044-.725.135-1.065a3.13 3.13 0 0 1 .372-.9c.163-.267.357-.477.586-.628.231-.154.487-.228.772-.234.38.006.658.145.831.425.174.276.258.659.253 1.145v.024zm-1.738 10.846c-.408 0-.797-.048-1.16-.138a3.866 3.866 0 0 1-.97-.377 2.132 2.132 0 0 1-.665-.576 1.176 1.176 0 0 1-.25-.72c.003-.145.071-.29.19-.426.12-.138.26-.263.42-.371.16-.115.301-.2.428-.265.126.017.321.05.57.102.253.048.533.104.831.176.301.066.588.136.86.207.274.078.494.145.661.213.288.114.502.228.65.342.15.12.247.237.297.364a.95.95 0 0 1 .068.406.783.783 0 0 1-.239.546c-.16.159-.383.28-.67.377-.286.092-.615.14-.999.14h-.022zm6.304-6.545c.004.803.104 1.47.3 1.992.198.527.471.916.822 1.177.351.253.76.382 1.223.382a5.037 5.037 0 0 0 1.884-.38 6.171 6.171 0 0 0 2.896-2.474c-.014.15-.029.316-.053.5-.017.182-.036.374-.047.566-.01.292-.023.579-.017.849.006.27.017.493.047.669.033.173.076.26.14.27.11 0 .28-.01.506-.021.224-.017.483-.036.763-.072.282-.032.561-.078.837-.134.278-.055.514-.126.723-.21a8.696 8.696 0 0 1-.019-.635c-.002-.283.002-.615.025-1 .022-.377.058-.782.113-1.215a76.7 76.7 0 0 1 .207-1.575 139.506 139.506 0 0 1 .494-3.448c.081-.541.161-1.015.226-1.428.076-.41.136-.727.184-.941a48.339 48.339 0 0 0-1.106-.24 19.709 19.709 0 0 0-1.29-.218 10.557 10.557 0 0 0-1.303-.094 9.362 9.362 0 0 0-1.978.185 6.31 6.31 0 0 0-1.722.603 6.339 6.339 0 0 0-1.51 1.118c-.447.44-.82.904-1.123 1.404a7.804 7.804 0 0 0-.719 1.514 8.273 8.273 0 0 0-.388 1.495 8.059 8.059 0 0 0-.115 1.336v.025zm4.005.989c-.23.002-.423-.116-.567-.366-.148-.244-.222-.638-.225-1.18 0-.367.037-.765.112-1.196.081-.43.205-.86.38-1.298.17-.431.392-.841.667-1.225.286-.366.572-.644.855-.838a2.63 2.63 0 0 1 .844-.396c.285-.066.57-.102.858-.095.196 0 .376.018.54.048.171.035.318.073.452.124a2.932 2.932 0 0 1-.037.293 3.017 3.017 0 0 0-.037.235c-.118.798-.292 1.51-.514 2.144a9.293 9.293 0 0 1-.766 1.653 6.505 6.505 0 0 1-.89 1.174c-.305.307-.602.543-.887.692-.284.153-.537.23-.759.23h-.026zM82.366 9.77a13.682 13.682 0 0 0 .148-2.376 5.232 5.232 0 0 0-.058-.748c-.035-.186-.075-.278-.118-.28-.064 0-.19.015-.372.045-.176.03-.388.069-.63.117-.235.048-.477.097-.717.15-.243.06-.462.11-.65.162-.19.05-.324.093-.406.129.013.106.02.254.02.439 0 .184 0 .384-.007.6-.004.219-.018.426-.024.626-.012.202-.023.37-.034.507-.049.506-.116 1.056-.187 1.643-.078.589-.159 1.187-.25 1.808-.094.614-.184 1.225-.285 1.822-.094.596-.188 1.162-.279 1.687-.092.529-.183.99-.258 1.399.202-.007.438-.021.704-.047a12.749 12.749 0 0 0 1.576-.234c.236-.055.424-.114.57-.18a.85.85 0 0 0 .382-.296c.087-.135.153-.322.198-.574.2-1.078.417-2.003.656-2.77.242-.771.487-1.41.74-1.92.251-.511.505-.907.747-1.2.252-.297.482-.498.7-.621.211-.124.401-.181.563-.178.233.004.448.04.653.104.21.069.38.147.528.233a2.64 2.64 0 0 0 .421-.593c.138-.246.265-.521.37-.815.11-.296.188-.587.237-.87.048-.285.052-.531.01-.74a1.197 1.197 0 0 0-.313-.21 2.41 2.41 0 0 0-.402-.161 1.274 1.274 0 0 0-.346-.062 2.703 2.703 0 0 0-.864.135c-.308.096-.63.27-.962.516-.332.247-.666.59-1.003 1.037a9.694 9.694 0 0 0-.987 1.716h-.07z" mask="url(#b)"/>
        </g>
        <g transform="translate(92 -.997)">
            <mask id="d" fill="#fff">
                <use xlink:href="#c"/>
            </mask>
            <path fill="#003F97" d="M.815 10.575l.721-.7 2.121.217 3.361-4.088-6.115-2.87 1.366-.94L9.32 3.751s3.88-3.547 4.847-2.59c.962.956-2.703 4.736-2.703 4.736l1.205 6.701-.89 1.29-2.614-5.717-4.23 3.223.164 2.123-.734.718-1.172-2.419-2.378-1.24z" mask="url(#d)"/>
        </g>
        <g transform="translate(136 16.003)">
            <mask id="f" fill="#fff">
                <use xlink:href="#e"/>
            </mask>
            <path fill="#003F97" d="M14.481 9.723c0-.541-.425-1.183-.912-1.806-1.095.559-3.152 1.008-6.082 1.014h-.041c-2.932-.006-4.99-.455-6.084-1.014C.876 8.54.45 9.182.45 9.723c0 .895 2.447 1.977 6.996 1.982h.041c4.55-.005 6.994-1.087 6.994-1.982zM1.771 7.41c1.165.469 3.08.823 5.675.828h.041c2.595-.005 4.505-.36 5.67-.828l-.002-.01c0-4.41-4.124-5.041-4.51-5.041 0-.43-.752-.35-.997-.35 0-.43.224-.57.224-.57l.49-.308L8.257.68H6.67l-.098.45.484.31s.228.139.228.569c-.244 0-.997-.08-.997.35-.387 0-4.196.535-4.515 5.033v.018z" mask="url(#f)"/>
        </g>
    </g>
</svg>
