<svg xmlns="http://www.w3.org/2000/svg" width="80" height="80" viewBox="0 0 80 80">
    <defs>
        <filter id="a" width="105.7%" height="103.3%" x="-2.9%" y="-1.2%" filterUnits="objectBoundingBox">
            <feOffset dy="2" in="SourceAlpha" result="shadowOffsetOuter1"/>
            <feGaussianBlur in="shadowOffsetOuter1" result="shadowBlurOuter1" stdDeviation="2"/>
            <feColorMatrix in="shadowBlurOuter1" result="shadowMatrixOuter1" values="0 0 0 0 0 0 0 0 0 0 0 0 0 0 0 0 0 0 0.5 0"/>
            <feMerge>
                <feMergeNode in="shadowMatrixOuter1"/>
                <feMergeNode in="SourceGraphic"/>
            </feMerge>
        </filter>
    </defs>
    <g fill="none" fill-rule="evenodd" filter="url(#a)" transform="translate(-100 -47)">
        <path fill="#0D7AFF" d="M140 49c-19.872 0-36 16.128-36 36s16.128 36 36 36 36-16.128 36-36-16.128-36-36-36z"/>
        <path fill="#FFF" d="M142.64 100.256h2.88v2.88H134v-2.88h2.88v-20.16H134v-2.88h8.64v23.04zM139.76 68a3.17 3.17 0 0 1 3.168 3.168 3.17 3.17 0 0 1-3.168 3.168 3.17 3.17 0 0 1-3.168-3.168A3.17 3.17 0 0 1 139.76 68z"/>
    </g>
</svg>
