<svg xmlns="http://www.w3.org/2000/svg" width="33" height="44" viewBox="0 0 33 44">
    <path fill="#424242" fill-rule="nonzero" d="M32.083 16.5h-2.75v-3.667C29.333 5.757 23.576 0 16.5 0 9.424 0 3.667 5.757 3.667 12.833V16.5H.917a.916.916 0 0 0-.917.917v22.916A3.67 3.67 0 0 0 3.667 44h25.666A3.67 3.67 0 0 0 33 40.333V17.417a.916.916 0 0 0-.917-.917zM19.12 35.969a.968.968 0 0 1-.218.722.854.854 0 0 1-.652.309h-3.5a.854.854 0 0 1-.652-.31.968.968 0 0 1-.218-.721l.552-5.268C13.536 30.01 13 28.915 13 27.714 13 25.666 14.57 24 16.5 24s3.5 1.666 3.5 3.714c0 1.2-.536 2.295-1.432 2.987l.552 5.268zM24 16H9v-3.667C9 8.29 12.365 5 16.5 5S24 8.29 24 12.333V16z" opacity=".508"/>
</svg>
