<svg xmlns="http://www.w3.org/2000/svg" width="29" height="50" viewBox="0 0 29 50">
    <g fill="#E80004" fill-rule="evenodd">
        <path d="M29 47.819V1.677C29 .755 28.244 0 27.323 0H1.677C.755 0 0 .755 0 1.677v46.142c0 .922.755 1.677 1.677 1.678l25.646-.001c.921 0 1.677-.755 1.677-1.677M10.18 2.972h8.642c.458 0 .829.355.829.788 0 .435-.371.787-.829.787H10.18c-.458 0-.832-.352-.832-.787 0-.433.374-.788.832-.788m6.238 43.51a.95.95 0 0 1-.671.281l-2.51.002-.096-.005a.947.947 0 0 1-.855-.945l-.003-2.51c0-.522.426-.949.949-.95l2.508-.003c.531 0 .95.428.954.95l.002 2.508c.001.254-.099.493-.278.672m9.011-6.834H3.573c-.59 0-1.076-.477-1.076-1.067V8.218c0-.586.487-1.067 1.076-1.067h21.855c.594 0 1.074.48 1.074 1.067V38.58a1.07 1.07 0 0 1-1.074 1.069"/>
        <path d="M7.907 16.208a5.945 5.945 0 0 0 3.595 5.51c-.008.307-.04 1.2-.13 1.353-.107.185-.196.337-.598.732-.403.396-.077.441-.077.441.236.033.625.06.863.063l.303.002a.434.434 0 0 1 .43.437c-.002.239.132.573.3.743l.47.478a1.2 1.2 0 0 1 .3.742l-.002.262c0 .238-.123.551-.27.695-.147.144-.164.367-.04.495.127.128.228.428.227.665-.003.24-.143.57-.314.739l-.09.088c-.17.167-.31.499-.312.737l-.006.73a.575.575 0 0 0 .418.536s.511.125.504 1.061c-.008.936-.338 1.07-.338 1.07a.704.704 0 0 0-.405.596l-.004.44c-.002.237.132.572.3.741l1.89 1.923c.166.17.442.172.612.005l.075-.074c.17-.168.311-.5.313-.738l.126-14.896a5.945 5.945 0 0 0 3.75-5.475 5.946 5.946 0 1 0-11.89-.101m5.983-4.411a1.715 1.715 0 0 1-.029 3.431 1.715 1.715 0 0 1-1.699-1.73 1.714 1.714 0 0 1 1.728-1.701"/>
    </g>
</svg>
