<svg xmlns="http://www.w3.org/2000/svg" width="8" height="14" viewBox="0 0 8 14">
    <path fill="#888B87" fill-rule="nonzero" d="M7.07 0H.93C.42 0 0 .432 0 .96V13.04c0 .528.419.959.93.959h6.14c.511 0 .93-.431.93-.96V.96C8 .432 7.581 0 7.07 0zM2.254 12.895H1.252a.34.34 0 0 1-.335-.345c0-.19.15-.345.335-.345h1.002a.34.34 0 0 1 .335.345.34.34 0 0 1-.335.345zm0-1.316H1.252a.34.34 0 0 1-.335-.345c0-.19.15-.345.335-.345h1.002a.34.34 0 0 1 .335.345.34.34 0 0 1-.335.345zm0-1.315H1.252a.34.34 0 0 1-.335-.345.34.34 0 0 1 .335-.345h1.002a.34.34 0 0 1 .335.345.34.34 0 0 1-.335.345zm0-1.315H1.252a.34.34 0 0 1-.335-.345c0-.19.15-.346.335-.346h1.002a.34.34 0 0 1 .335.346.34.34 0 0 1-.335.345zm2.247 3.946H3.5a.34.34 0 0 1-.334-.345c0-.19.15-.345.334-.345h1.002a.34.34 0 0 1 .335.345.34.34 0 0 1-.335.345zm0-1.316H3.5a.34.34 0 0 1-.334-.345c0-.19.15-.345.334-.345h1.002a.34.34 0 0 1 .335.345.34.34 0 0 1-.335.345zm0-1.315H3.5a.34.34 0 0 1-.334-.345.34.34 0 0 1 .334-.345h1.002a.34.34 0 0 1 .335.345.34.34 0 0 1-.335.345zm0-1.315H3.5a.34.34 0 0 1-.334-.345c0-.19.15-.346.334-.346h1.002a.34.34 0 0 1 .335.346.34.34 0 0 1-.335.345zm2.247 3.946H5.745a.34.34 0 0 1-.334-.345c0-.19.15-.345.334-.345h1.003a.34.34 0 0 1 .335.345.34.34 0 0 1-.335.345zm0-1.316H5.745a.34.34 0 0 1-.334-.345c0-.19.15-.345.334-.345h1.003a.34.34 0 0 1 .335.345.34.34 0 0 1-.335.345zm0-1.315H5.745a.34.34 0 0 1-.334-.345.34.34 0 0 1 .334-.345h1.003a.34.34 0 0 1 .335.345.34.34 0 0 1-.335.345zm0-1.315H5.745a.34.34 0 0 1-.334-.345c0-.19.15-.346.334-.346h1.003a.34.34 0 0 1 .335.346.34.34 0 0 1-.335.345zm.354-1.487H.898V1.125h6.204v6.337z"/>
</svg>
