<?xml version="1.0" encoding="UTF-8"?>
<svg width="72px" height="72px" viewBox="0 0 72 72" version="1.1" xmlns="http://www.w3.org/2000/svg" xmlns:xlink="http://www.w3.org/1999/xlink">
    <!-- Generator: Sketch 48.2 (47327) - http://www.bohemiancoding.com/sketch -->
    <title>IcoInfo</title>
    <desc>Created with Sketch.</desc>
    <defs></defs>
    <g id="Santander---Bécalos" stroke="none" stroke-width="1" fill="none" fill-rule="evenodd">
        <g id="IcoInfo">
            <path d="M36,0 C16.128,0 0,16.128 0,36 C0,55.872 16.128,72 36,72 C55.872,72 72,55.872 72,36 C72,16.128 55.872,0 36,0 Z" id="Fill-1" fill="#0D7AFF"></path>
            <path d="M38.64,51.256 L41.52,51.256 L41.52,54.136 L30,54.136 L30,51.256 L32.88,51.256 L32.88,31.096 L30,31.096 L30,28.216 L38.64,28.216 L38.64,51.256 Z M35.76,19 C37.50852,19 38.928,20.41948 38.928,22.168 C38.928,23.91652 37.50852,25.336 35.76,25.336 C34.01148,25.336 32.592,23.91652 32.592,22.168 C32.592,20.41948 34.01148,19 35.76,19 Z" id="Fill-2" fill="#FFFFFF"></path>
        </g>
    </g>
</svg>