<svg xmlns="http://www.w3.org/2000/svg" width="37" height="56" viewBox="0 0 37 56">
    <path fill="#C8C8C7" fill-rule="evenodd" d="M28.884 3.394v-.658c0-1.048-.754-1.89-1.681-1.89A282.511 282.511 0 0 0 5.188 0C-10.797 0-23.8 1.293-31.12 2.235c-.71.159-2.63.646-2.21 1.078 5.148.197 18.666.648 34.282.648 10.244 0 19.617-.19 27.932-.567zm0 32.806H21.41c-1.993 0-6.371-1.791-6.371-7.116V26.42c0-5 4.76-7.114 6.657-7.114H33.817V8.475c0-.845-.59-1.536-1.322-1.55-.839.044-1.66.082-2.478.121a40.02 40.02 0 0 0-.566.03c-.19.006-.374.015-.567.024-8.31.374-17.69.564-27.932.564-19.945 0-36.463-.731-36.622-.74-.726 0-1.33.697-1.33 1.55v44.048c0 .842.59 1.54 1.317 1.556 1.63.133 15.519 1.26 34.5 1.26 11.692 0 22.987-.423 33.58-1.254.83-.02 1.42-.72 1.42-1.562V36.2h-4.933zm6.43-15.007H21.697c-.893 0-4.763 1.339-4.763 5.226v2.665c0 4.332 3.581 5.222 4.477 5.222h7.473c2.203-.022 4.625.077 6.785-.051l.277-.099c.579-.289.984-.958.984-1.737v-9.334c0-.899-.539-1.65-1.261-1.84l-.355-.052zm-13.379 9.444a2.881 2.881 0 0 1-2.549-1.55 2.852 2.852 0 0 1-.343-1.335 2.888 2.888 0 1 1 5.777 0c0 .937-.452 1.763-1.145 2.29a2.861 2.861 0 0 1-1.74.595z"/>
</svg>
