<svg xmlns="http://www.w3.org/2000/svg" width="184" height="34" viewBox="0 0 184 34">
    <g fill="none" fill-rule="evenodd">
        <path fill="#E80004" fill-rule="nonzero" d="M184 24v-4h-14v14h4V24z"/>
        <path fill="#717375" fill-rule="nonzero" d="M174 0h-4v14h14v-4h-10zM160 34h4V20h-14v4h10z"/>
        <path fill="#E80004" fill-rule="nonzero" d="M160 10h-10v4h14V0h-4z"/>
        <path fill="#E80004" d="M7.186 29.396c4.883 0 7.886-2.541 7.886-6.534 0-4.059-2.738-5.544-5.642-6.864-2.31-1.056-4.06-1.617-4.06-3.333 0-1.485 1.156-2.277 2.938-2.277 1.88 0 3.53.858 4.29 1.353l1.88-3.267c-.923-.693-2.838-1.848-6.434-1.848-3.927 0-7.095 2.343-7.095 6.105 0 3.564 2.013 5.247 4.719 6.567 2.574 1.287 4.917 1.848 4.917 3.795 0 1.419-1.287 2.541-3.498 2.541-2.541 0-4.224-1.287-4.72-1.65l-1.98 3.234c.958.792 3.235 2.178 6.799 2.178zm14.915 0c-2.74 0-4.851-1.65-4.851-4.521 0-4.191 4.323-5.709 8.58-5.709h.56v-.924c0-1.551-.692-2.244-2.607-2.244-1.748 0-3.135.759-4.091 1.518l-1.915-2.673c1.287-1.188 3.465-2.31 6.502-2.31 4.389 0 6.468 1.683 6.468 5.94v5.775c0 2.178.23 3.729.462 4.752h-4.323c-.133-.396-.232-1.221-.264-1.716a5.859 5.859 0 0 1-4.521 2.112zm1.32-3.201c1.352 0 2.277-.627 2.97-1.419v-2.904h-.561c-2.574 0-4.356.759-4.356 2.64 0 1.188.956 1.683 1.947 1.683zM34.77 29h4.39V18.209c.66-.891 1.88-2.013 3.3-2.013 1.584 0 2.145.825 2.145 2.442V29h4.389V17.747c0-2.97-1.32-5.214-4.819-5.214-2.31 0-3.96 1.056-5.114 2.409v-2.013h-4.29V29zm24.42.396c2.012 0 3.365-.561 4.026-.924l-1.023-3.267c-.33.198-1.156.594-2.113.594-1.22 0-1.617-.693-1.617-2.277v-7.326h3.763v-3.267h-3.762V8.276h-4.357v4.653h-2.573v3.267h2.574v8.184c0 3.069 1.286 5.016 5.081 5.016zm10.46 0c-2.74 0-4.852-1.65-4.852-4.521 0-4.191 4.323-5.709 8.58-5.709h.561v-.924c0-1.551-.692-2.244-2.606-2.244-1.75 0-3.136.759-4.093 1.518l-1.913-2.673c1.287-1.188 3.465-2.31 6.5-2.31 4.39 0 6.468 1.683 6.468 5.94v5.775c0 2.178.231 3.729.462 4.752h-4.322c-.133-.396-.232-1.221-.265-1.716a5.859 5.859 0 0 1-4.52 2.112zm1.32-3.201c1.352 0 2.276-.627 2.97-1.419v-2.904h-.562c-2.574 0-4.356.759-4.356 2.64 0 1.188.958 1.683 1.948 1.683zM82.32 29h4.39V18.209c.66-.891 1.88-2.013 3.3-2.013 1.584 0 2.145.825 2.145 2.442V29h4.388V17.747c0-2.97-1.32-5.214-4.817-5.214-2.31 0-3.96 1.056-5.115 2.409v-2.013h-4.29V29zm23.76.429c-4.026 0-6.6-3.036-6.6-8.415 0-5.148 3.069-8.481 7.194-8.481 1.716 0 2.97.495 3.728 1.122V5.24h4.39v19.173c0 1.947.23 3.531.461 4.587h-4.323c-.132-.396-.296-1.254-.33-1.749-1.088 1.32-2.507 2.178-4.52 2.178zm1.32-3.531c1.287 0 2.376-.792 3.002-1.617v-7.26c-.693-.627-1.55-1.056-2.805-1.056-2.243 0-3.465 1.881-3.465 5.049 0 3.069 1.023 4.884 3.267 4.884zm18.743 3.498c-5.38 0-8.416-3.399-8.416-8.514 0-5.082 3.499-8.349 7.954-8.349 4.553 0 6.996 2.904 6.996 7.92 0 .495-.034.99-.066 1.518h-10.164c.198 2.376 1.419 4.158 4.092 4.158 2.177 0 3.398-.726 4.19-1.122l1.42 2.838c-1.056.594-2.707 1.551-6.007 1.551zm-3.763-10.395h6.006c-.032-1.815-.758-3.3-2.772-3.3-1.88 0-2.903 1.221-3.233 3.3zM135.911 29h4.388V18.869c.397-.726 1.552-2.442 3.499-2.442.923 0 1.418.198 1.683.363l1.055-3.828c-.363-.198-.99-.429-2.178-.429-2.046 0-3.365 1.386-4.059 2.574v-2.178h-4.388V29z"/>
    </g>
</svg>
