<svg xmlns="http://www.w3.org/2000/svg" xmlns:xlink="http://www.w3.org/1999/xlink" width="31" height="29" viewBox="0 0 31 29">
    <defs>
        <path id="a" d="M0 0v28.606h30.909V0z"/>
    </defs>
    <g fill="none" fill-rule="evenodd">
        <mask id="b" fill="#fff">
            <use xlink:href="#a"/>
        </mask>
        <path fill="#EC0000" d="M15.913 1.358c0 3.516 5.837 7.42 5.837 11.435 0 0 0 .388-.163.802 5.458 1.164 9.322 3.905 9.322 7.118 0 4.32-6.89 7.893-15.429 7.893C6.76 28.606 0 25.091 0 20.88c0-3.21 4.187-5.816 9.241-7.198 0 1.77 5.75 7.394 5.89 9.662.015.26.065.48 0 .748 1.241-.662 1.241-2.741 1.241-2.741 0-4.929-5.591-7.117-5.591-11.962 0-1.883.865-3.268 1.648-3.655V7.09c0 3.518 6.05 7.449 6.05 10.662v1.052c1.407-.551 1.407-3.185 1.407-3.185 0-4.43-5.62-6.895-5.62-11.963 0-1.881.864-3.266 1.647-3.655v1.358z" mask="url(#b)"/>
    </g>
</svg>
