<svg xmlns="http://www.w3.org/2000/svg" xmlns:xlink="http://www.w3.org/1999/xlink" width="66" height="26" viewBox="0 0 66 26">
    <defs>
        <path id="a" d="M.088.144h2.266v3.765H.088z"/>
        <path id="c" d="M0 25.626h65.754V.001H0z"/>
    </defs>
    <g fill="none" fill-rule="evenodd">
        <path fill="#0F0D09" d="M35.42 14.46a1.993 1.993 0 0 0-.776-.162c-.263 0-.603.113-.603.524 0 .65 1.676.376 1.676 1.637 0 .828-.664 1.138-1.434 1.138-.417 0-.603-.054-.982-.145l.072-.68c.263.14.564.232.865.232.29 0 .68-.145.68-.486 0-.715-1.676-.418-1.676-1.665 0-.841.661-1.149 1.336-1.149.327 0 .635.043.914.136l-.072.62zM36.411 13.77h2.256v.593h-1.489v.926h1.363v.594h-1.363v1.058h1.5v.594h-2.267zM42.44 14.497a2.573 2.573 0 0 0-.986-.199c-.891 0-1.386.592-1.386 1.364 0 .766.483 1.342 1.299 1.342.207 0 .372-.02.503-.054v-.98h-.81v-.594h1.544v2.028c-.404.107-.827.194-1.237.194-1.237 0-2.098-.61-2.098-1.883 0-1.288.8-2.01 2.098-2.01.444 0 .794.059 1.122.156l-.05.636zM43.382 13.77h.767v2.172c0 .641.207 1.062.794 1.062.586 0 .793-.42.793-1.062v-2.173h.767v2.404c0 1.01-.58 1.424-1.56 1.424-.982 0-1.561-.413-1.561-1.424V13.77zM48.063 15.376h.252c.377 0 .81-.054.81-.521 0-.455-.427-.49-.81-.49h-.252v1.011zm-.766-1.605h.826c.821 0 1.802-.03 1.802 1.018 0 .442-.302.808-.788.873v.01c.207.018.328.22.404.388l.614 1.473h-.854l-.461-1.176c-.108-.28-.207-.388-.53-.388h-.247v1.564h-.766V13.77zM52.395 17.004c.782 0 1.073-.684 1.073-1.362 0-.666-.312-1.344-1.073-1.344-.762 0-1.074.678-1.074 1.344 0 .678.291 1.362 1.074 1.362m0-3.3c1.199 0 1.872.799 1.872 1.938 0 1.138-.663 1.956-1.872 1.956-1.227 0-1.873-.804-1.873-1.956 0-1.156.657-1.937 1.873-1.937M57.021 14.46a2.003 2.003 0 0 0-.777-.162c-.263 0-.603.113-.603.524 0 .65 1.675.376 1.675 1.637 0 .828-.662 1.138-1.434 1.138-.416 0-.602-.054-.98-.145l.072-.68c.263.14.564.232.865.232.29 0 .678-.145.678-.486 0-.715-1.675-.418-1.675-1.665 0-.841.662-1.149 1.336-1.149.328 0 .634.043.915.136l-.072.62zM60.301 16.94h.426c.642 0 1.26-.468 1.26-1.29 0-.819-.618-1.288-1.26-1.288h-.426v2.578zm-.766-3.171h1.045c1.172 0 2.207.389 2.207 1.881 0 1.494-1.035 1.883-2.207 1.883h-1.045V13.77z"/>
        <g transform="translate(63.4 13.626)">
            <mask id="b" fill="#fff">
                <use xlink:href="#a"/>
            </mask>
            <path fill="#0F0D09" d="M.088.144h2.256v.593H.854v.926h1.362v.594H.854v1.059h1.5v.593H.088z" mask="url(#b)"/>
        </g>
        <path fill="#FF0A12" d="M33.024 18.6h1.987l1.556 5.417h.02l1.567-5.418h1.917L37.682 25.5h-2.309z"/>
        <mask id="d" fill="#fff">
            <use xlink:href="#c"/>
        </mask>
        <path fill="#FF0A12" d="M40.913 25.5h1.868v-6.9h-1.868zM46.043 24.136h.724c1.395 0 2.178-.713 2.178-2.087s-.814-2.084-2.178-2.084h-.724v4.17zm-1.867-5.537h2.55c2.44 0 4.146.752 4.146 3.421 0 2.581-1.756 3.48-4.146 3.48h-2.55v-6.901zM55.219 20.024h-.02l-.904 2.698h1.757l-.833-2.698zM54.074 18.6h2.289l2.7 6.9h-2.048l-.522-1.471h-2.63l-.552 1.471h-1.897l2.66-6.9z" mask="url(#d)"/>
        <path fill="#696769" d="M31.713 13.24L26.095 8.4V4.39c0-.603-.496-1.09-1.106-1.09H23.08c-.611 0-1.107.487-1.107 1.09v.46L16.598.222a.918.918 0 0 0-1.12-.06.136.136 0 0 0-.026.015c-.006.005-.01.01-.015.013-.017.013-.035.025-.05.039L.312 13.209a.887.887 0 0 0-.084 1.266c.18.202.432.305.685.305a.916.916 0 0 0 .601-.224L15.997 2.09 30.511 14.59a.92.92 0 0 0 1.286-.085.887.887 0 0 0-.084-1.265" mask="url(#d)"/>
        <path fill="#696769" d="M20.098 9.401c-.44 0-1.635.284-1.635 1.709 0 1.426.825 2.164 1.595 2.164.83 0 1.709-.4 1.709-2.195 0-1.416-.944-1.678-1.67-1.678M3.811 14.883c-.29 0-1.079.187-1.079 1.129 0 .943.545 1.43 1.054 1.43.548 0 1.128-.266 1.128-1.451 0-.935-.624-1.108-1.103-1.108M28.254 15.203c-.29 0-1.08.187-1.08 1.13 0 .942.545 1.429 1.054 1.429.548 0 1.129-.265 1.129-1.452 0-.935-.625-1.107-1.103-1.107M11.961 9.401c-.439 0-1.634.284-1.634 1.709 0 1.426.824 2.164 1.595 2.164.83 0 1.709-.4 1.709-2.195 0-1.416-.945-1.678-1.67-1.678" mask="url(#d)"/>
        <path fill="#696769" d="M27.115 25.626h2.234l.14-1.923h1.24s-.164-1.39-.978-2.457v-.576l.975 1.202.487-.366s-.952-2.364-1.147-2.743c-.195-.376-.683-.655-1.35-.655-.893 0-1.477-.109-2.556.663-.447.323-1.374.986-1.374.986l-1.734-4.079s-.528-1.922-2.823-1.922c-.033 0-2.612-.161-3.124 1.922l-1.091 2.557S14.688 15.007 14.5 14.7c-.188-.305-.953-.914-2.507-.914-1.554 0-2.57.85-2.701 1.137-.162.362-1.888 4.57-1.888 4.57s-1.554-1.115-1.83-1.3c-.277-.182-1.034-.374-1.668-.374-.635 0-2.238.175-2.206 1.232.034 1.058.14 2.773.14 2.773s.097.433.618.378l.292 3.423h2.213l.48-5.997s2.044.947 2.262 1.044c.221.095.399.07.603-.258.202-.328 1.48-2.299 1.48-2.299v.72L8.44 21.89h1.716l.302 3.737h2.985l.286-3.737h1.603l-1.253-3.11v-.663s1.432 2.082 1.578 2.234c.147.153.618.232.822-.104.203-.337 1.505-2.172 1.505-2.172l.586 7.552h3.043l.602-7.552s1.603 2.516 1.71 2.638c.105.12.283.335.78.064.496-.273 2.09-.922 2.09-.922v1.321s-.829 1.237-.992 2.528h1.204l.11 1.923z" mask="url(#d)"/>
    </g>
</svg>
