<svg xmlns="http://www.w3.org/2000/svg" xmlns:xlink="http://www.w3.org/1999/xlink" width="74" height="31" viewBox="0 0 74 31">
    <defs>
        <path id="a" d="M0 .507h27.544v30.308H0z"/>
    </defs>
    <g fill="none" fill-rule="evenodd">
        <path fill="#0F0E0A" d="M21.278 7.85l.318-.49c.093.074.4.335.918.335.462 0 .744-.265.744-.576 0-.429-.456-.577-.937-.82-.512-.248-.931-.54-.931-1.209 0-.695.587-1.105 1.286-1.105.65 0 1.007.224 1.163.342l-.307.496a1.467 1.467 0 0 0-.83-.266c-.375 0-.63.193-.63.521 0 .36.33.503.755.695.549.254 1.124.533 1.124 1.314 0 .708-.562 1.18-1.437 1.18-.656 0-1.074-.267-1.236-.417M24.783 4.061h2.28v.582h-1.58v1.104h1.392v.56h-1.393v1.301h1.625v.583h-2.324zM27.765 6.12c0-1.128.793-2.135 2.186-2.135.587 0 1.012.137 1.343.38l-.33.52c-.29-.217-.595-.316-1.026-.316-.98 0-1.43.694-1.43 1.526 0 .843.431 1.594 1.399 1.594.388 0 .693-.08.862-.205v-.967h-.825v-.558h1.512v1.898c-.307.223-.805.41-1.555.41-1.38 0-2.136-1.036-2.136-2.147M32.389 6.616V4.061h.707v2.487c0 .769.3 1.135 1.01 1.135.676 0 .976-.422.976-1.067V4.061h.656V6.56c0 1.073-.538 1.706-1.65 1.706-1.174 0-1.699-.62-1.699-1.65M38.07 5.878c.537 0 .78-.229.78-.639 0-.41-.256-.625-.818-.625h-.506v1.264h.544zm-1.25-1.817h1.275c.924 0 1.462.41 1.462 1.147 0 .683-.482 1.03-1.056 1.098v.012c.1.069.231.212.463.56l.91 1.314h-.792l-.794-1.173c-.4-.57-.467-.62-.705-.62h-.057v1.793h-.706v-4.13zM43.681 6.133c0-.844-.437-1.577-1.343-1.577-.906 0-1.367.714-1.367 1.558 0 .842.448 1.58 1.348 1.58.912 0 1.362-.725 1.362-1.561m-3.454 0c0-1.13.75-2.148 2.092-2.148 1.35 0 2.106 1.006 2.106 2.129 0 1.13-.744 2.152-2.087 2.152-1.342 0-2.111-1.01-2.111-2.133M44.89 7.85l.318-.49c.093.074.4.335.918.335.462 0 .743-.265.743-.576 0-.429-.456-.577-.937-.82-.512-.248-.93-.54-.93-1.209 0-.695.587-1.105 1.286-1.105.65 0 1.006.224 1.163.342l-.307.496a1.467 1.467 0 0 0-.83-.266c-.376 0-.631.193-.631.521 0 .36.33.503.755.695.55.254 1.125.533 1.125 1.314 0 .708-.562 1.18-1.437 1.18-.657 0-1.074-.267-1.237-.417M49.438 6.12c0-1.122.744-2.135 2.1-2.135.537 0 .893.119 1.211.324l-.33.514a1.56 1.56 0 0 0-.9-.254c-.875 0-1.337.707-1.337 1.526 0 .843.444 1.581 1.356 1.581.45 0 .75-.148.974-.328l.307.49c-.22.198-.701.428-1.293.428-1.369 0-2.088-1.03-2.088-2.146M56.631 6.133c0-.844-.437-1.577-1.342-1.577-.906 0-1.368.714-1.368 1.558 0 .842.448 1.58 1.348 1.58.912 0 1.362-.725 1.362-1.561m-3.455 0c0-1.13.75-2.148 2.093-2.148 1.35 0 2.106 1.006 2.106 2.129 0 1.13-.744 2.152-2.086 2.152-1.344 0-2.113-1.01-2.113-2.133M58.213 4.061h.707l1.705 2.432c.224.321.362.563.418.657h.013a6.403 6.403 0 0 1-.026-.608V4.06h.643v4.13h-.65l-1.81-2.586c-.181-.247-.307-.479-.369-.577h-.012c.005.062.024.274.024.503v2.66h-.643v-4.13zM63.488 4.643h-1.162v-.582h3.029v.582h-1.154v3.549h-.713zM67.27 5.878c.537 0 .78-.229.78-.639 0-.41-.257-.625-.818-.625h-.506v1.264h.543zm-1.25-1.817h1.275c.923 0 1.46.41 1.46 1.147 0 .683-.48 1.03-1.055 1.098v.012c.1.069.232.212.462.56l.913 1.314h-.793l-.794-1.173c-.4-.57-.47-.62-.706-.62h-.056v1.793h-.706v-4.13zM71.893 6.735l-.43-1.18c-.126-.347-.19-.571-.24-.713h-.01c-.044.15-.113.39-.233.713l-.437 1.18h1.35zM70.9 4.06h.68L73.2 8.19h-.769l-.324-.886h-1.77l-.317.886h-.706l1.587-4.13z"/>
        <path fill="#FF0E11" d="M21.612 10.232h2.615v.785h-1.669v1.014h1.472v.745h-1.472v1.177h1.716v.784h-2.662zM25.219 10.232h.968l1.634 2.334c.272.385.436.683.477.757h.013a8.443 8.443 0 0 1-.027-.71v-2.38h.872v4.504h-.878l-1.765-2.503c-.245-.338-.381-.589-.436-.677h-.013c.006.062.026.32.026.604v2.576h-.871v-4.505zM30.286 10.232h2.602v.785h-1.64v1.102h1.443v.744h-1.444v1.874h-.96zM33.765 10.232h2.615v.785h-1.669v1.014h1.472v.745h-1.472v1.177h1.717v.784h-2.663zM38.864 12.207c.511 0 .75-.229.75-.621 0-.414-.239-.624-.79-.624h-.484v1.245h.524zm-1.484-1.975h1.512c1.062 0 1.676.454 1.676 1.3 0 .736-.505 1.107-1.057 1.21v.013c.123.088.287.265.531.643l.886 1.34h-1.055l-.832-1.286c-.353-.521-.429-.569-.64-.569h-.06v1.854h-.961v-4.505zM41.948 10.232h.933l.913 2.78c.109.324.191.65.232.778h.013c.035-.122.13-.454.239-.777l.939-2.78h.927l.627 4.504h-.981l-.293-2.326a20.304 20.304 0 0 1-.075-.657h-.014c-.02.102-.088.345-.184.642l-.77 2.341h-.946l-.77-2.334c-.088-.284-.156-.554-.184-.649h-.013c-.007.102-.027.365-.062.664l-.292 2.32h-.866l.627-4.506zM47.623 10.232h2.615v.785H48.57v1.014h1.471v.745H48.57v1.177h1.716v.784h-2.663zM52.647 13.973c1.022 0 1.54-.52 1.54-1.522 0-1.008-.498-1.455-1.573-1.455h-.417v2.977h.45zm-1.41-3.74h1.37c1.784 0 2.596.892 2.596 2.19 0 1.299-.826 2.314-2.63 2.314h-1.335v-4.505zM58.184 13.127l-.388-1.075c-.143-.385-.204-.677-.245-.778h-.014c-.034.108-.109.412-.238.778l-.388 1.075h1.273zm-1.076-2.894h.927l1.777 4.503h-1.05l-.305-.843h-1.812l-.3.843h-.967l1.73-4.503zM61.89 13.973c1.02 0 1.538-.52 1.538-1.522 0-1.008-.497-1.455-1.573-1.455h-.416v2.977h.45zm-1.412-3.74h1.37c1.785 0 2.595.892 2.595 2.19 0 1.299-.824 2.314-2.629 2.314h-1.336v-4.505zM65.294 10.232h2.615v.785H66.24v1.014h1.472v.745H66.24v1.177h1.717v.784h-2.663zM68.58 14.371l.41-.662c.102.074.449.339.973.339.457 0 .723-.232.723-.522 0-.4-.484-.513-1.016-.777-.558-.272-.972-.617-.972-1.347 0-.77.653-1.251 1.463-1.251.742 0 1.137.237 1.328.379l-.389.67a1.711 1.711 0 0 0-.884-.278c-.368 0-.606.163-.606.466 0 .352.36.468.836.685.6.27 1.166.574 1.166 1.406 0 .819-.62 1.339-1.628 1.339-.735 0-1.205-.283-1.403-.447"/>
        <g transform="translate(0 -.322)">
            <mask id="b" fill="#fff">
                <use xlink:href="#a"/>
            </mask>
            <path fill="#484242" d="M24.208 28.55c-.61 0-1.105-.49-1.105-1.095 0-.36.18-.678.449-.879h1.312c.27.2.448.518.448.879a1.1 1.1 0 0 1-1.104 1.096m1.005-4.256v-1.226c0-2.497-2.047-4.53-4.561-4.53h-.296c-2.515 0-4.562 2.033-4.562 4.53v3.216a2.498 2.498 0 0 1-2.502 2.486h-.295a2.498 2.498 0 0 1-2.501-2.486v-6.023h.852v-.914c5.143-.474 6.2-6.717 6.973-11.303.06-.36.12-.714.181-1.059.36-2.064.092-3.66-.798-4.749a3.503 3.503 0 0 0-2.46-1.28h-1.591a1.437 1.437 0 0 0-1.048-.45c-.801 0-1.45.644-1.45 1.439a1.443 1.443 0 0 0 2.426 1.057h1.6c.06.006.554.074.923.526.492.6.618 1.673.368 3.107-.061.347-.122.705-.184 1.071-.865 5.139-1.794 9.128-4.94 9.582v-.827H7.483v.85c-3.287-.33-4.232-4.371-5.114-9.604-.062-.366-.122-.723-.183-1.072-.247-1.414-.129-2.48.346-3.084.374-.475.888-.543.946-.549h1.599a1.443 1.443 0 0 0 2.424-1.057c0-.795-.648-1.439-1.449-1.439-.414 0-.784.173-1.048.45H3.413a3.499 3.499 0 0 0-2.459 1.28C.063 3.325-.206 4.922.156 6.987c.06.344.12.699.18 1.059.782 4.638 1.854 10.968 7.147 11.316v.9h.951v6.023c0 2.497 2.047 4.53 4.563 4.53h.295c2.516 0 4.563-2.033 4.563-4.53v-3.216a2.497 2.497 0 0 1 2.5-2.485h.297c1.378 0 2.5 1.117 2.5 2.485v1.245a3.315 3.315 0 0 0-2.28 3.14c0 1.83 1.494 3.313 3.336 3.313 1.842 0 3.336-1.484 3.336-3.312 0-1.483-.98-2.735-2.33-3.16" mask="url(#b)"/>
        </g>
    </g>
</svg>
