<svg xmlns="http://www.w3.org/2000/svg" xmlns:xlink="http://www.w3.org/1999/xlink" width="72" height="27" viewBox="0 0 72 27">
    <defs>
        <path id="a" d="M.85.178h6.724v7.344H.85z"/>
        <path id="c" d="M0 .488h32.486v15.48H0z"/>
    </defs>
    <g fill="none" fill-rule="evenodd">
        <path fill="#0F0D09" d="M37.115 15.032a1.943 1.943 0 0 0-.777-.167c-.262 0-.6.117-.6.54 0 .669 1.672.386 1.672 1.684 0 .85-.664 1.17-1.433 1.17-.415 0-.601-.055-.98-.15l.073-.698c.263.144.563.238.864.238.29 0 .678-.15.678-.499 0-.736-1.673-.432-1.673-1.713 0-.865.66-1.182 1.333-1.182.328 0 .634.044.914.141l-.071.636zM38.104 14.322h2.253v.61h-1.486v.953h1.358v.611h-1.358v1.087h1.497v.612h-2.264zM44.124 15.071a2.46 2.46 0 0 0-.983-.206c-.892 0-1.386.61-1.386 1.403 0 .789.484 1.381 1.296 1.381.209 0 .373-.02.503-.056v-1.009h-.807v-.61h1.541v2.086c-.404.112-.825.2-1.237.2-1.234 0-2.094-.628-2.094-1.936 0-1.326.798-2.069 2.094-2.069.445 0 .794.061 1.122.161l-.05.655zM45.065 14.322h.765v2.235c0 .66.21 1.092.794 1.092.584 0 .792-.432.792-1.092v-2.235h.765v2.474c0 1.037-.58 1.463-1.557 1.463-.98 0-1.56-.426-1.56-1.463v-2.474zM49.74 15.975h.251c.376 0 .81-.055.81-.536 0-.468-.43-.505-.81-.505h-.252v1.04zm-.767-1.651h.828c.817 0 1.797-.03 1.797 1.047a.88.88 0 0 1-.786.897v.012c.205.018.328.227.402.4l.613 1.513h-.853l-.46-1.21c-.107-.287-.206-.399-.529-.399h-.246v1.609h-.766v-3.87zM54.065 17.65c.78 0 1.071-.704 1.071-1.402 0-.684-.312-1.382-1.071-1.382-.761 0-1.074.698-1.074 1.382 0 .698.293 1.402 1.074 1.402m0-3.394c1.196 0 1.87.82 1.87 1.992 0 1.17-.662 2.012-1.87 2.012-1.225 0-1.872-.827-1.872-2.012 0-1.189.656-1.992 1.872-1.992M58.684 15.032a1.937 1.937 0 0 0-.775-.167c-.263 0-.601.117-.601.54 0 .669 1.672.386 1.672 1.684 0 .85-.663 1.17-1.432 1.17-.416 0-.601-.055-.98-.15l.073-.698c.263.144.563.238.864.238.289 0 .677-.15.677-.499 0-.736-1.672-.432-1.672-1.713 0-.865.659-1.182 1.333-1.182.328 0 .634.044.913.141l-.072.636zM61.96 17.583h.425c.642 0 1.257-.482 1.257-1.326 0-.842-.615-1.325-1.257-1.325h-.425v2.651zm-.767-3.261h1.044c1.172 0 2.203.399 2.203 1.935 0 1.537-1.03 1.936-2.203 1.936h-1.044v-3.871zM65.143 14.322h2.252v.61h-1.487v.953h1.36v.611h-1.36v1.087h1.498v.612h-2.263z"/>
        <path fill="#FF0A12" d="M35.273 19.291h1.864v2.714h2.206v-2.714h1.862v7.098h-1.862v-3.041h-2.206v3.04h-1.864zM45.759 25.107c1.13 0 1.581-1.096 1.581-2.265 0-1.232-.451-2.27-1.581-2.27-1.133 0-1.584 1.038-1.584 2.27 0 1.169.45 2.265 1.584 2.265m0-5.938c2.305 0 3.508 1.395 3.508 3.673 0 2.256-1.225 3.67-3.508 3.67-2.286 0-3.51-1.414-3.51-3.67 0-2.278 1.203-3.673 3.51-3.673"/>
        <g transform="translate(49.2 18.99)">
            <mask id="b" fill="#fff">
                <use xlink:href="#a"/>
            </mask>
            <path fill="#FF0A12" d="M7.574 7.195a10.236 10.236 0 0 1-2.706.328C3.002 7.523.85 6.565.85 3.879c0-2.673 1.853-3.7 4.42-3.7.462 0 1.432.05 2.116.314l-.15 1.548c-.584-.348-1.264-.458-1.704-.458-1.515 0-2.758.64-2.758 2.296 0 1.394.973 2.238 2.334 2.238.25 0 .492-.04.664-.12V4.591H4.679V3.25h2.895v3.945z" mask="url(#b)"/>
        </g>
        <path fill="#FF0A12" d="M61.336 20.755h-.021l-.903 2.776h1.755l-.83-2.776zm-1.142-1.463h2.285l2.696 7.097H63.13l-.52-1.516h-2.627l-.551 1.516h-1.895l2.657-7.097zM67.722 22.24h.49c.602 0 1.364-.02 1.364-.824 0-.661-.652-.78-1.363-.78h-.491v1.604zm-1.866-2.949h3.33c1.242 0 2.255.57 2.255 1.79 0 .945-.443 1.576-1.344 1.79v.02c.6.162.642.701.993 1.566l.68 1.932h-1.943l-.401-1.282c-.38-1.219-.623-1.523-1.314-1.523h-.39v2.805h-1.866V19.29z"/>
        <g transform="translate(0 -.27)">
            <mask id="d" fill="#fff">
                <use xlink:href="#c"/>
            </mask>
            <path fill="#6A6769" d="M32.172 14.323l-5.699-5.056V5.07c0-.628-.503-1.138-1.124-1.138h-1.935c-.619 0-1.123.51-1.123 1.138v.486L16.841.72A.92.92 0 0 0 15.7.655l-.023.018a.109.109 0 0 1-.02.014c-.015.014-.032.025-.049.04L.314 14.29a.947.947 0 0 0-.084 1.323.92.92 0 0 0 1.305.085L16.229 2.673l14.722 13.06a.911.911 0 0 0 1.304-.086.946.946 0 0 0-.083-1.324" mask="url(#d)"/>
        </g>
        <path fill="#6A6769" d="M2.914 16.096L16.225 4.448l13.468 11.77s-.037 6.81-.037 7.66c0 .844-.36 2.456-2.186 2.456h-7.075v-8.061c0-1.041-.793-4.192-4.01-4.192-3.22 0-4.134 3.143-4.134 4.192v8.061H4.948c-.684 0-2.034-.455-2.034-2.403v-7.835z"/>
    </g>
</svg>
