<svg xmlns="http://www.w3.org/2000/svg" xmlns:xlink="http://www.w3.org/1999/xlink" width="110" height="53" viewBox="0 0 110 53">
    <defs>
        <path id="a" d="M.588.973h11.076v11.075H.588z"/>
        <path id="c" d="M.588.925h11.076V12H.588z"/>
        <path id="e" d="M0 .973h11.076v11.075H0z"/>
    </defs>
    <g fill="none" fill-rule="evenodd">
        <path fill="#1F191A" d="M10.023 22.036l1.22-1.99c.303.223 1.34 1.015 2.903 1.015 1.361 0 2.153-.69 2.153-1.564 0-1.198-1.442-1.543-3.026-2.335-1.666-.813-2.905-1.849-2.905-4.042 0-2.315 1.95-3.757 4.367-3.757 2.214 0 3.392.711 3.96 1.137l-1.157 2.011c-.468-.305-1.483-.832-2.64-.832-1.097 0-1.808.487-1.808 1.401 0 1.056 1.077 1.401 2.498 2.051 1.787.812 3.473 1.726 3.473 4.224 0 2.457-1.848 4.022-4.854 4.022-2.193 0-3.595-.854-4.184-1.341M21.274 8.51h2.7v5.93c.509-.548 1.464-1.442 3.089-1.442 2.172 0 2.964 1.382 2.964 3.209v6.926h-2.701v-6.377c0-.995-.345-1.503-1.3-1.503-1.056 0-1.848.975-2.051 1.238v6.642h-2.701V8.51zM39.084 18.218c0-1.848-.65-3.21-2.193-3.21-1.524 0-2.03 1.28-2.03 3.129 0 1.848.608 3.188 2.131 3.188 1.544 0 2.092-1.258 2.092-3.107m-7.088 0c0-2.538 1.483-5.22 4.935-5.22 3.453 0 5.017 2.6 5.017 5.139 0 2.498-1.524 5.24-4.996 5.24-3.453 0-4.956-2.62-4.956-5.16M42.902 13.242h2.904l1.503 6.296h.04l1.686-6.296h2.498l1.686 6.337h.04l1.544-6.337h2.7l-2.822 9.891h-2.437l-2.031-6.621h-.04l-2.031 6.621h-2.438zM58.762 16.35c0-3.677 2.417-6.987 6.986-6.987 1.767 0 3.006.386 4.062 1.077l-1.279 2.091c-.752-.488-1.584-.792-2.823-.792-2.539 0-3.9 2.031-3.9 4.53 0 2.579 1.3 4.712 3.94 4.712 1.463 0 2.356-.509 3.067-1.037l1.178 2.01c-.69.63-2.315 1.422-4.285 1.422-4.61 0-6.946-3.35-6.946-7.027M76.857 20.533v-1.787h-.345c-1.584 0-2.681.467-2.681 1.625 0 .73.589 1.035 1.198 1.035.833 0 1.402-.386 1.828-.873m-5.625.061c0-2.58 2.66-3.513 5.28-3.513h.345v-.569c0-.955-.426-1.381-1.604-1.381-1.077 0-1.93.466-2.52.934l-1.177-1.645c.792-.732 2.133-1.422 4-1.422 2.702 0 3.982 1.036 3.982 3.656v3.554c0 1.341.142 2.295.284 2.925h-2.66c-.081-.245-.142-.751-.163-1.056a3.609 3.609 0 0 1-2.782 1.3c-1.686 0-2.985-1.016-2.985-2.783M81.405 22.442l.914-1.889c.386.264 1.34.813 2.437.813 1.036 0 1.625-.305 1.625-.894 0-.67-1.097-.853-2.498-1.523-1.381-.65-2.214-1.422-2.214-2.925 0-1.848 1.463-3.026 3.696-3.026 1.686 0 2.722.528 3.169.792l-.955 1.848c-.385-.244-1.157-.63-2.112-.63-.955 0-1.361.346-1.361.874 0 .67.894.853 2.031 1.3 1.564.65 2.702 1.361 2.702 3.026 0 2.072-1.483 3.17-3.92 3.17-1.767 0-2.905-.53-3.514-.936M96.739 16.98c-.022-1.118-.468-2.032-1.707-2.032-1.157 0-1.787.751-1.99 2.031h3.697zm-6.56 1.156c0-3.128 2.153-5.138 4.894-5.138 2.803 0 4.306 1.787 4.306 4.875 0 .304-.02.61-.04.933h-6.257c.123 1.463.874 2.56 2.519 2.56 1.34 0 2.091-.448 2.58-.69l.873 1.745c-.65.366-1.666.955-3.697.955-3.31 0-5.178-2.092-5.178-5.24z"/>
        <path fill="#F00" d="M7.078 39.643l1.22-1.99c.303.223 1.34 1.015 2.903 1.015 1.361 0 2.153-.69 2.153-1.564 0-1.198-1.442-1.543-3.026-2.335-1.666-.813-2.904-1.849-2.904-4.042 0-2.315 1.95-3.757 4.366-3.757 2.214 0 3.392.711 3.96 1.137l-1.157 2.011c-.468-.305-1.483-.832-2.64-.832-1.097 0-1.808.487-1.808 1.401 0 1.056 1.077 1.401 2.498 2.051 1.787.812 3.473 1.726 3.473 4.224 0 2.457-1.848 4.022-4.854 4.022-2.193 0-3.595-.854-4.184-1.34M23.264 38.14v-1.787h-.345c-1.584 0-2.68.468-2.68 1.625 0 .73.588 1.035 1.197 1.035.833 0 1.402-.386 1.828-.872m-5.625.06c0-2.58 2.66-3.513 5.28-3.513h.345v-.569c0-.955-.426-1.38-1.604-1.38-1.077 0-1.93.466-2.519.934l-1.178-1.645c.792-.733 2.133-1.422 4.001-1.422 2.701 0 3.981 1.035 3.981 3.655v3.554c0 1.342.142 2.296.284 2.925h-2.66c-.08-.245-.142-.75-.163-1.056a3.609 3.609 0 0 1-2.782 1.3c-1.686 0-2.985-1.016-2.985-2.782M28.585 30.85h2.64v1.239c.71-.834 1.726-1.483 3.148-1.483 2.153 0 2.965 1.381 2.965 3.209v6.925h-2.701v-6.377c0-.995-.345-1.502-1.32-1.502-.874 0-1.625.69-2.031 1.238v6.642h-2.701v-9.892zM40.668 37.896V32.86h-1.584v-2.01h1.584v-2.864h2.68v2.863h2.316v2.011h-2.315v4.51c0 .973.243 1.4.995 1.4a2.69 2.69 0 0 0 1.3-.366l.629 2.011c-.406.223-1.24.57-2.478.57-2.335 0-3.127-1.199-3.127-3.089M53.056 38.14v-1.787h-.345c-1.584 0-2.681.468-2.681 1.625 0 .73.589 1.035 1.198 1.035.833 0 1.402-.386 1.828-.872m-5.625.06c0-2.58 2.66-3.513 5.28-3.513h.345v-.569c0-.955-.426-1.38-1.604-1.38-1.077 0-1.93.466-2.52.934l-1.177-1.645c.792-.733 2.133-1.422 4-1.422 2.702 0 3.982 1.035 3.982 3.655v3.554c0 1.342.142 2.296.284 2.925h-2.66c-.081-.245-.142-.75-.163-1.056a3.609 3.609 0 0 1-2.782 1.3c-1.686 0-2.985-1.016-2.985-2.782M58.376 30.85h2.64v1.239c.711-.834 1.726-1.483 3.148-1.483 2.153 0 2.965 1.381 2.965 3.209v6.925h-2.7v-6.377c0-.995-.346-1.502-1.32-1.502-.875 0-1.626.69-2.032 1.238v6.642h-2.7v-9.892zM75.841 37.836v-4.468c-.427-.386-.955-.65-1.727-.65-1.38 0-2.132 1.158-2.132 3.107 0 1.889.63 3.006 2.011 3.006.792 0 1.462-.487 1.848-.995m-6.723-2.011c0-3.168 1.89-5.22 4.428-5.22 1.056 0 1.828.305 2.295.69v-5.178h2.701v11.8c0 1.198.142 2.174.284 2.823h-2.66a5.616 5.616 0 0 1-.203-1.076c-.67.813-1.544 1.34-2.783 1.34-2.477 0-4.062-1.868-4.062-5.18M87.091 34.587c-.02-1.117-.466-2.031-1.706-2.031-1.157 0-1.788.75-1.99 2.03h3.697zm-6.56 1.157c0-3.128 2.153-5.138 4.894-5.138 2.803 0 4.306 1.787 4.306 4.875 0 .304-.02.609-.04.933h-6.255c.121 1.463.872 2.56 2.517 2.56 1.341 0 2.093-.448 2.58-.691l.873 1.746c-.65.366-1.665.955-3.696.955-3.31 0-5.178-2.092-5.178-5.24zM91.884 30.85h2.701v1.34c.426-.731 1.239-1.584 2.498-1.584.731 0 1.117.141 1.341.264l-.65 2.355c-.163-.102-.468-.224-1.036-.224-1.199 0-1.909 1.058-2.153 1.504v6.235h-2.701v-9.89zM98.362 39.196c0-.975.812-1.726 1.808-1.726.995 0 1.787.751 1.787 1.726 0 .976-.792 1.747-1.787 1.747-.996 0-1.808-.77-1.808-1.747"/>
        <g transform="translate(98 -.973)">
            <mask id="b" fill="#fff">
                <use xlink:href="#a"/>
            </mask>
            <path fill="#F00" d="M11.664.972v11.076h-2.16V3.132H.588V.972z" mask="url(#b)"/>
        </g>
        <g transform="translate(98 40.027)">
            <mask id="d" fill="#fff">
                <use xlink:href="#c"/>
            </mask>
            <path fill="#F00" d="M11.664 12H.588V9.84h8.916V.926h2.16z" mask="url(#d)"/>
        </g>
        <path fill="#F00" d="M0 52.027V40.952h2.16v8.916h8.916v2.16z"/>
        <g transform="translate(0 -.973)">
            <mask id="f" fill="#fff">
                <use xlink:href="#e"/>
            </mask>
            <path fill="#F00" d="M0 .972h11.076v2.16H2.16v8.916H0z" mask="url(#f)"/>
        </g>
    </g>
</svg>
